<svg xmlns="http://www.w3.org/2000/svg" viewBox="0 0 512 512"><path d="M505.36,170.3C512,106.35,466,72.14,440.75,63c-5.59-2-12.48-.14-15.26,5.13s-1.9,11,2.64,14.45c1.32,2.09,7.41,13.67,5.75,45.55-.3,5.86-1.12,21.6-33.2,21.61a91.39,91.39,0,0,1-9.36-.48c-2.28-4.76-6-11-11.71-19.68-9.5-14.42-24.42-22-43.05-22a82,82,0,0,0-33.3,7.54c-11.08,5.14-37,8.22-47.26,9.08-10.26-.86-36.19-3.9-47.27-9.08a82,82,0,0,0-33.28-7.57c-18.66,0-33.54,7.63-43,22.06-5.71,8.67-9.45,14.91-11.71,19.67a91.58,91.58,0,0,1-9.37.48c-32.06,0-32.88-15.7-33.2-21.61-1.65-31.89,4.44-43.46,5.75-45.55,4.55-3.49,5.34-9.3,2.64-14.45S76.85,60.92,71.25,63C46,72.14,0,106.35,6.64,170.3c4.56,44.26,24.34,62,41.25,69.09C34.22,252.5,19.5,270,19.08,285.22c-.29,10.48,2.45,18.76,8.15,24.61,6,6.2,14.72,9.22,26.59,9.22a113.58,113.58,0,0,0,18.94-1.85c16.86-2.86,33.52-7,43.95-9.76,5.52,15,16.08,42.84,25.1,61.72a223,223,0,0,1,15.62,45.06c-1.8,11-6.34,49.87,15.08,71.29,16.82,16.81,50,20.35,74.88,20.35,4.2,0,7.24-.12,8.55-.18s4.36.18,8.56.18c24.87,0,58.05-3.54,74.87-20.35,21.43-21.43,16.89-60.3,15.08-71.29a224.47,224.47,0,0,1,15.62-45.06c9-18.88,19.58-46.71,25.1-61.72,10.46,2.79,27.12,6.92,43.95,9.76a113.6,113.6,0,0,0,18.94,1.87c11.87,0,20.57-3,26.6-9.22,5.69-5.86,8.43-14.13,8.14-24.61-.42-15.19-15.12-32.72-28.81-45.83C481,232.35,500.8,214.56,505.36,170.3ZM146.69,276a31.88,31.88,0,0,1,12.17-25.12,11.93,11.93,0,0,1,15.24.38l29.79,26a11.91,11.91,0,0,1,2.4,15.06A32,32,0,0,1,146.72,276Zm60.55,196.74a18.41,18.41,0,0,1-6.68,1.25c-10.94,0-20.51-9.5-23.78-23.65-3.77-16.26,1.95-31.33,13.48-35.83a18.37,18.37,0,0,1,6.68-1.25c10.93,0,20.5,9.5,23.77,23.65,3.8,16.27-1.82,31.33-13.44,35.83Zm128.26-22.4C332.22,464.52,322.67,474,311.73,474h0a18.43,18.43,0,0,1-6.69-1.26c-11.57-4.49-17.23-19.53-13.46-35.82,3.28-14.15,12.83-23.66,23.77-23.66a18.41,18.41,0,0,1,6.68,1.25c11.61,4.5,17.27,19.57,13.5,35.83Zm-2.27-142.29a32.22,32.22,0,0,1-27.55-15.7,11.94,11.94,0,0,1,2.4-15.06l29.79-26a11.93,11.93,0,0,1,15.24-.38,32,32,0,0,1-19.88,57.17Z"/></svg>