<svg xmlns="http://www.w3.org/2000/svg" viewBox="0 0 512 512"><path d="M457.09,53.27H295.87A12.91,12.91,0,0,0,283,66.18V268.42H76.52a12.93,12.93,0,0,0-12.91,12.92V439.16a12.92,12.92,0,0,0,12.91,12.9l380.55-.1A12.93,12.93,0,0,0,470,439V66.17A12.91,12.91,0,0,0,457.09,53.27ZM256,370.54a15.12,15.12,0,0,1-15.13,15.13H156.4a15.5,15.5,0,0,1-1.69-.1v1.3l12.12,30.68a2.45,2.45,0,0,1-.81,2.87,2.4,2.4,0,0,1-1.48.5,2.47,2.47,0,0,1-1.5-.51l-60.26-46.34a2.47,2.47,0,0,1,0-3.91L163,323.83a2.46,2.46,0,0,1,3.79,2.84l-11.36,28.78c.3,0,.61-.05.93-.05h69.34V304.68a15.13,15.13,0,1,1,30.25,0v65.86ZM485.37,10.83H255.13a26.62,26.62,0,0,0-26.62,26.62V222.53H26.62A26.63,26.63,0,0,0,0,249.16V474.55a26.62,26.62,0,0,0,26.62,26.62H256.86c.51,0,1-.12,1.48-.14h227A26.64,26.64,0,0,0,512,474.39V263.09c0-.09,0-.17,0-.26V37.45A26.63,26.63,0,0,0,485.37,10.83Zm-3.91,428.22a24.42,24.42,0,0,1-24.39,24.39H298.12a3.44,3.44,0,0,1-1,.11H76.52a24.41,24.41,0,0,1-24.39-24.38V281.35A24.41,24.41,0,0,1,76.52,257h195V66.18A24.41,24.41,0,0,1,295.87,41.8H457.09a24.4,24.4,0,0,1,24.38,24.38Z"/></svg>