<svg xmlns="http://www.w3.org/2000/svg" viewBox="0 0 512 512"><defs><style>.circle{fill:#fff;}.cow{fill:#060;}.bull{fill:#c00;}</style></defs><circle class="circle" cx="256" cy="256" r="256"/><path class="cow" d="M467.58,193l-.24-9.36H397.87a127.59,127.59,0,0,0,11.47-27.54,167.66,167.66,0,0,0,6.49-49.94l-1.66-33.11-19.09,28.76A144.62,144.62,0,0,1,359,139.5a148.79,148.79,0,0,1-37.26,19.44,156.23,156.23,0,0,1-22.85,6.21H259.42v37c12.29-.78,33.94-3.07,53.8,23.31,22.22,29.51-37.77,41.11-36.36,118.76,1.06,55.42,29.48,84.9,45.68,97.24-.38,8.07-.57,14.52-.66,18.47v0c-2.73,1.41-8.54,3.7-19.7,5.6-5.61-7.18-17.75-16.69-42.76-17.67v39.88c27.85-.23,49.5-2.77,64.37-7.59,12.79-4.14,17.37-8.9,18.9-11.33L344,466.7v-2.43c.19-28,4.7-106.3,22.88-132.69,10-14.54,14.91-35.67,14.9-64.21,25.92-1.85,46.63-9.49,61.64-22.78C468,222.91,467.58,194.25,467.58,193ZM348.46,308.88v0c-8.47,3.81-19.78-.43-25.3-9.48s-3.18-19.49,5.26-23.3,19.79.43,25.32,9.48S356.9,305.06,348.46,308.88Zm24-125.2h-9c-6.3-4.86-14.14-8.91-21-12a169.82,169.82,0,0,0,30.21-17.12,163.91,163.91,0,0,0,17.91-14.8C387.8,153.79,382.48,170,372.45,183.68Z"/><path class="bull" d="M251.81,164.94c-10.19-1.06-27.63-3.49-35.71-7.27A69.18,69.18,0,0,0,188,151.28c-15.76,0-28.33,6.44-36.32,18.63a148.94,148.94,0,0,0-9.9,16.62,77.46,77.46,0,0,1-7.91.41c-27.09,0-27.78-13.27-28-18.26-1.39-26.94,3.75-36.71,4.86-38.48,3.84-2.95,4.51-7.86,2.23-12.21s-8.2-6.1-12.93-4.35c-21.34,7.72-60.2,36.62-54.59,90.65,3.86,37.39,20.57,52.38,34.85,58.37-11.55,11.07-24,25.85-24.34,38.71-.24,8.86,2.07,15.85,6.89,20.79C67.84,327.4,75.2,330,85.23,330a95.41,95.41,0,0,0,16-1.56c14.24-2.42,28.32-5.91,37.13-8.25,4.66,12.68,13.58,36.19,21.2,52.14a188.81,188.81,0,0,1,13.2,38.07c-1.52,9.29-5.36,42.13,12.74,60.23,14.21,14.2,42.24,17.19,63.26,17.19,1.12,0,2.14,0,3.05,0ZM177,316.94a27.06,27.06,0,0,1-13.31-23.36h0A26.92,26.92,0,0,1,174,272.36a10.08,10.08,0,0,1,12.87.32l25.17,22a10.06,10.06,0,0,1,2,12.72A27,27,0,0,1,177,316.94Zm37.84,142.85h0a15.33,15.33,0,0,1-5.64,1c-9.25,0-17.33-8-20.09-20-3.19-13.73,1.64-26.46,11.38-30.26a15.61,15.61,0,0,1,5.65-1.06c9.23,0,17.32,8,20.08,20C229.43,443.26,224.68,456,214.86,459.79Z"/></svg>