<svg xmlns="http://www.w3.org/2000/svg" viewBox="0 0 512 512"><defs><style>.ground{fill:#fff;}.cow{fill:#060;}.bull{fill:#c00;}</style></defs><path class="ground" d="M0,0V269.33H.34C7.28,404.52,119.09,512,256,512S504.72,404.52,511.66,269.33H512V0Z"/><path class="cow" d="M467.58,158.69l-.24-9.37H397.87a127.3,127.3,0,0,0,11.47-27.53,167.66,167.66,0,0,0,6.49-49.94l-1.66-33.11L395.08,67.5A144.58,144.58,0,0,1,359,105.14a148.46,148.46,0,0,1-37.26,19.44,155,155,0,0,1-22.85,6.22H259.42v37c12.29-.78,33.94-3.08,53.8,23.3,22.22,29.51-37.77,41.11-36.36,118.77,1.06,55.41,29.48,84.9,45.68,97.24-.38,8.07-.57,14.52-.66,18.47v0c-2.73,1.4-8.54,3.7-19.7,5.6-5.61-7.19-17.75-16.7-42.76-17.67v39.88c27.85-.23,49.5-2.77,64.37-7.59,12.79-4.15,17.37-8.91,18.9-11.34l1.35-2.11v-2.43c.19-28,4.7-106.31,22.88-132.7,10-14.54,14.91-35.66,14.9-64.21,25.92-1.85,46.63-9.48,61.64-22.78C468,188.55,467.58,159.9,467.58,158.69ZM348.46,274.52v0c-8.47,3.81-19.78-.43-25.3-9.48s-3.18-19.49,5.26-23.31,19.79.43,25.32,9.48S356.9,270.71,348.46,274.52Zm24-125.2h-9c-6.3-4.86-14.14-8.9-21-12a169.24,169.24,0,0,0,30.21-17.13,162.69,162.69,0,0,0,17.91-14.79C387.8,119.43,382.48,135.67,372.45,149.32Z"/><path class="bull" d="M251.81,130.59c-10.19-1.06-27.63-3.49-35.71-7.27a69.35,69.35,0,0,0-28.12-6.4c-15.76,0-28.33,6.45-36.32,18.64a148,148,0,0,0-9.9,16.62,77.45,77.45,0,0,1-7.91.4c-27.09,0-27.78-13.26-28-18.25-1.39-26.94,3.75-36.72,4.86-38.48,3.84-2.95,4.51-7.86,2.23-12.21s-8.2-6.11-12.93-4.35C78.62,87,39.76,115.91,45.37,169.94c3.86,37.39,20.57,52.37,34.85,58.36-11.55,11.08-24,25.86-24.34,38.72-.24,8.85,2.07,15.85,6.89,20.79,5.07,5.24,12.43,7.79,22.46,7.79a96.47,96.47,0,0,0,16-1.56c14.24-2.42,28.32-5.92,37.13-8.25,4.66,12.67,13.58,36.19,21.2,52.14A188.38,188.38,0,0,1,172.76,376c-1.52,9.29-5.36,42.13,12.74,60.22,14.21,14.2,42.24,17.19,63.26,17.19l3.05,0ZM177,282.58a27,27,0,0,1-13.31-23.35h0A26.91,26.91,0,0,1,174,238a10.07,10.07,0,0,1,12.87.32l25.17,22A10.07,10.07,0,0,1,214,273,27,27,0,0,1,177,282.58Zm37.84,142.85h0a15.55,15.55,0,0,1-5.64,1.06c-9.25,0-17.33-8-20.09-20-3.19-13.74,1.64-26.47,11.38-30.27a15.39,15.39,0,0,1,5.65-1.05c9.23,0,17.32,8,20.08,20C229.43,408.91,224.68,421.63,214.86,425.43Z"/></svg>