<svg xmlns="http://www.w3.org/2000/svg" viewBox="0 0 512 512"><defs><style>.c1{fill:#ff4f19;}.c2{fill:#e3001e;}.c3{fill:#ffcd00;}.c4{fill:#ff9100;}.c5{fill:#fff;}</style></defs><path class="c1" d="M272.68,196.54,365,4.53A8,8,0,0,1,372.2,0h129a8,8,0,0,1,7.21,11.47L386,266a8,8,0,0,1-5,4.23,8.24,8.24,0,0,1-2.21.3,8.08,8.08,0,0,1-4.28-1.23l-98.88-62.57A8,8,0,0,1,272.68,196.54Z"/><path class="c2" d="M442,0h59.18a8,8,0,0,1,7.22,11.47L386,266a8,8,0,0,1-5,4.23,8.24,8.24,0,0,1-2.21.3,8.08,8.08,0,0,1-4.28-1.23L327,239.26Z"/><path class="c1" d="M239.32,196.54,147,4.53A8,8,0,0,0,139.8,0h-129A8,8,0,0,0,3.62,11.47L126,266a8.05,8.05,0,0,0,5,4.23,8.24,8.24,0,0,0,2.21.3,8.08,8.08,0,0,0,4.28-1.23l98.88-62.57A8,8,0,0,0,239.32,196.54Z"/><path class="c2" d="M70,0H10.84A8,8,0,0,0,3.62,11.47L126,266a8.05,8.05,0,0,0,5,4.23,8.24,8.24,0,0,0,2.21.3,8.08,8.08,0,0,0,4.28-1.23L185,239.26Z"/><circle class="c3" cx="256.11" cy="352" r="160"/><path class="c4" d="M256.11,512a159.5,159.5,0,0,0,113.13-46.86L143,238.86A160,160,0,0,0,256.11,512Z"/><path class="c5" d="M297.94,431.21a16.57,16.57,0,0,1-7.7-1.92l-34.13-17.94L222,429.29a16.53,16.53,0,0,1-24-17.43l6.52-38L176.9,347a16.54,16.54,0,0,1,9.16-28.2l38.16-5.55,17.07-34.57a16.44,16.44,0,0,1,14.81-9.22h0a16.45,16.45,0,0,1,14.83,9.22L288,313.2l38.15,5.55a16.53,16.53,0,0,1,9.17,28.2L307.7,373.86l6.53,38a16.58,16.58,0,0,1-16.29,19.35ZM188.07,335.49l30.62,29.85a8,8,0,0,1,2.3,7.08l-7.23,42.15,4.5,7.64-3.72-7.08,37.85-19.9a8,8,0,0,1,7.44,0l37.85,19.9,8.66-1.91-7.88,1.35-7.23-42.15a8,8,0,0,1,2.29-7.08l30.63-29.85.85-8.83-1.15,7.92-42.31-6.15a8,8,0,0,1-6-4.37l-18.92-38.35s-.47,0-.76,0h-.2L236.7,324.06a8,8,0,0,1-6,4.37l-42.31,6.15-5.89,6.64Z"/><path class="c5" d="M384.13,360a8.46,8.46,0,0,1-5.69-2.32,8.14,8.14,0,0,1,0-11.36,8.29,8.29,0,0,1,11.29,0,8,8,0,0,1-5.6,13.68Z"/><path class="c5" d="M256.13,232a8.3,8.3,0,0,1-5.69-2.32,8.14,8.14,0,0,1,0-11.36,8.29,8.29,0,0,1,11.29,0,8,8,0,0,1-5.6,13.68Z"/><path class="c5" d="M165.57,269.52a8,8,0,0,1-5.6-13.68,8.27,8.27,0,0,1,11.28,0,8,8,0,0,1,2.32,5.68,7.78,7.78,0,0,1-2.32,5.6A8,8,0,0,1,165.57,269.52Z"/><path class="c5" d="M346.61,450.48a8,8,0,0,1-5.68-13.6,8.22,8.22,0,0,1,11.36,0,8.07,8.07,0,0,1,2.32,5.6,8.31,8.31,0,0,1-2.32,5.68A8.05,8.05,0,0,1,346.61,450.48Z"/><path class="c5" d="M346.61,269.52a7.92,7.92,0,0,1-8-8,8.12,8.12,0,0,1,2.32-5.68,8.38,8.38,0,0,1,11.36,0,8.12,8.12,0,0,1,2.32,5.68,7.92,7.92,0,0,1-8,8Z"/><path class="c5" d="M374.37,311a8,8,0,0,1-5.68-13.68,8.38,8.38,0,0,1,11.36,0A8,8,0,0,1,374.37,311Z"/><path class="c5" d="M207.09,241.76a8.2,8.2,0,0,1-8-8,8.14,8.14,0,0,1,2.4-5.68,8.26,8.26,0,0,1,11.27,0,7.88,7.88,0,0,1,2.32,5.68,8,8,0,0,1-2.32,5.68A8.22,8.22,0,0,1,207.09,241.76Z"/><path class="c5" d="M374.37,409a8.05,8.05,0,0,1-5.68-2.32,8.26,8.26,0,0,1-2.32-5.68,8.07,8.07,0,0,1,2.32-5.6,8.22,8.22,0,0,1,11.36,0,8.07,8.07,0,0,1,2.32,5.6,8.26,8.26,0,0,1-2.32,5.68A8.07,8.07,0,0,1,374.37,409Z"/><path class="c5" d="M305.08,241.76a7.92,7.92,0,0,1-8-8,8.16,8.16,0,0,1,2.32-5.68,8.38,8.38,0,0,1,11.36,0,8.22,8.22,0,0,1,2.32,5.68,7.92,7.92,0,0,1-8,8Z"/><path class="c5" d="M381.57,334.48a8,8,0,0,1-5.68-13.68,8.27,8.27,0,0,1,11.28,0,8,8,0,0,1-5.6,13.68Z"/><path class="c5" d="M230.61,234.56a8.22,8.22,0,0,1-5.68-2.32,7.92,7.92,0,0,1-2.32-5.68,8,8,0,0,1,2.32-5.68,8,8,0,1,1,5.68,13.68Z"/><path class="c5" d="M362.85,430.64a8.41,8.41,0,0,1-5.68-2.32,8.26,8.26,0,0,1-2.32-5.68,8,8,0,1,1,16,0,8.26,8.26,0,0,1-2.32,5.68A8.41,8.41,0,0,1,362.85,430.64Z"/><path class="c5" d="M326.77,253.28a7.92,7.92,0,0,1-8-8,8,8,0,0,1,13.6-5.68,7.85,7.85,0,0,1,2.39,5.68,8,8,0,0,1-8,8Z"/><path class="c5" d="M362.21,288.4a7.92,7.92,0,0,1-8-8,8,8,0,0,1,13.68-5.68,8.1,8.1,0,0,1,2.32,5.68,7.83,7.83,0,0,1-2.32,5.68A7.92,7.92,0,0,1,362.21,288.4Z"/><path class="c5" d="M184.53,253.84a7.92,7.92,0,0,1-5.68-2.32,8,8,0,0,1,0-11.28,8.38,8.38,0,0,1,11.36,0,8,8,0,0,1-5.68,13.6Z"/><path class="c5" d="M381.73,384.4a8.05,8.05,0,0,1-5.68-2.32,8.26,8.26,0,0,1-2.32-5.68,8,8,0,0,1,13.68-5.68,8.05,8.05,0,0,1,2.32,5.68,7.92,7.92,0,0,1-8,8Z"/><path class="c5" d="M280.53,234.32a7.92,7.92,0,0,1-5.68-2.32,8.22,8.22,0,0,1-2.32-5.68,8,8,0,0,1,2.32-5.6,8.21,8.21,0,0,1,11.36,0,8,8,0,0,1-5.68,13.6Z"/><path class="c3" d="M297.94,431.21a16.58,16.58,0,0,0,16.29-19.35l-.37-2.1-19.59-19.6,4.19,24.41,7.88-1.36-8.66,1.92-37.85-19.9a8,8,0,0,0-7.44,0l-37.85,19.9,3.72,7.08-4.5-7.64L221,372.42a8,8,0,0,0-2.3-7.08l-30.62-29.85-5.59,5.73,5.89-6.64,42.31-6.15a7.16,7.16,0,0,0,1.46-.4l-13.95-13.95-32.13,4.66A16.54,16.54,0,0,0,176.9,347l27.61,26.91-6.51,38a16.53,16.53,0,0,0,24,17.43l34.14-17.94,34.13,17.94A16.57,16.57,0,0,0,297.94,431.21Z"/><path class="c3" d="M128.13,360a8,8,0,0,1-5.69-13.68,8.29,8.29,0,0,1,11.29,0,8,8,0,0,1-5.6,13.68Z"/><path class="c3" d="M256.13,488a8.46,8.46,0,0,1-5.69-2.32,8.14,8.14,0,0,1,0-11.36,8.29,8.29,0,0,1,11.29,0,8,8,0,0,1-5.6,13.68Z"/><path class="c3" d="M165.57,450.48a7.72,7.72,0,0,1-5.6-2.32,8.09,8.09,0,0,1-2.4-5.68,7.77,7.77,0,0,1,2.4-5.6,8.19,8.19,0,0,1,11.28,0,7.78,7.78,0,0,1,2.32,5.6,8.1,8.1,0,0,1-2.32,5.68A7.79,7.79,0,0,1,165.57,450.48Z"/><path class="c3" d="M137.89,409a7.79,7.79,0,0,1-5.68-2.32,8.05,8.05,0,0,1-2.32-5.68,7.74,7.74,0,0,1,2.32-5.6,8.12,8.12,0,0,1,11.28,0,7.81,7.81,0,0,1,2.4,5.6,8.14,8.14,0,0,1-2.4,5.68A7.74,7.74,0,0,1,137.89,409Z"/><path class="c3" d="M305.08,478.24a7.92,7.92,0,0,1-8-8,8,8,0,0,1,13.68-5.68,8.11,8.11,0,0,1,0,11.36A8,8,0,0,1,305.08,478.24Z"/><path class="c3" d="M137.89,311a7.86,7.86,0,0,1-5.68-2.4,8,8,0,0,1,0-11.28,8.27,8.27,0,0,1,11.28,0,8,8,0,0,1,2.4,5.68,8.2,8.2,0,0,1-8,8Z"/><path class="c3" d="M207.09,478.24a7.74,7.74,0,0,1-5.6-2.32,8,8,0,0,1-2.4-5.68,7.81,7.81,0,0,1,2.4-5.6,8.1,8.1,0,0,1,11.27,0,7.7,7.7,0,0,1,2.32,5.6,7.88,7.88,0,0,1-2.32,5.68A7.75,7.75,0,0,1,207.09,478.24Z"/><path class="c3" d="M130.69,385.52a7.92,7.92,0,1,1,5.68-2.32A8.41,8.41,0,0,1,130.69,385.52Z"/><path class="c3" d="M281.65,485.44a8.1,8.1,0,0,1-5.68-2.32,8.11,8.11,0,0,1,0-11.36,8.27,8.27,0,0,1,11.28,0,7.92,7.92,0,0,1,0,11.36A8.07,8.07,0,0,1,281.65,485.44Z"/><path class="c3" d="M149.4,289.36a7.94,7.94,0,0,1-8-8,7.93,7.93,0,0,1,2.33-5.68,8.27,8.27,0,0,1,11.28,0,8,8,0,0,1-5.61,13.68Z"/><path class="c3" d="M185.49,466.72a8.12,8.12,0,0,1-5.68-2.32,7.92,7.92,0,0,1-2.32-5.68,7.74,7.74,0,0,1,2.32-5.6,8.1,8.1,0,0,1,11.27,0,7.78,7.78,0,0,1,2.41,5.6,8.08,8.08,0,0,1-8,8Z"/><path class="c3" d="M150,431.6a8.06,8.06,0,0,1-8-8,8.26,8.26,0,0,1,2.32-5.68,8.38,8.38,0,0,1,11.36,0A7.92,7.92,0,0,1,158,423.6a7.74,7.74,0,0,1-2.32,5.6A8,8,0,0,1,150,431.6Z"/><path class="c3" d="M327.73,466.08a8,8,0,0,1-5.68-13.6,8.19,8.19,0,0,1,11.28,0,8,8,0,0,1-5.6,13.6Z"/><path class="c3" d="M130.44,335.6a8.06,8.06,0,0,1-8-8,8,8,0,0,1,13.69-5.68,7.91,7.91,0,0,1,2.31,5.68,7.73,7.73,0,0,1-2.31,5.6A8.14,8.14,0,0,1,130.44,335.6Z"/><path class="c3" d="M231.65,485.68a8,8,0,0,1-5.6-13.68,8.27,8.27,0,0,1,11.28,0,8,8,0,0,1-5.68,13.68Z"/><path class="c3" d="M160,255.85a8,8,0,0,0,5.61,13.67,8,8,0,0,0,5.67-2.39Z"/><path class="c3" d="M346.61,450.48a8.1,8.1,0,0,0,5.67-2.31L341,436.86l0,0a8,8,0,0,0,5.68,13.6Z"/></svg>