<svg xmlns="http://www.w3.org/2000/svg" viewBox="0 0 512 512"><path d="M475.89,139.34h-72a168.7,168.7,0,0,0,11.89-33.2,233.13,233.13,0,0,0,6.72-60.22L420.78,6,401,40.68a166.17,166.17,0,0,1-37.38,45.39A147.84,147.84,0,0,1,325,109.51,143.73,143.73,0,0,1,301.32,117H210.57c-25-5.56-69.17-22.8-99.62-76.18L91.15,6,89.43,45.89a233.13,233.13,0,0,0,6.72,60.22A168.7,168.7,0,0,0,108,139.31H36.11l-.23,11.28c0,1.46-.42,36,25,62.16,15.56,16,37,25.24,63.89,27.47,0,34.49,5.07,59.89,15.44,77.41,18.84,31.81,23.52,126.3,23.72,160v2.93l1.4,2.55c1.62,2.93,6.33,8.72,19.58,13.67C201.06,502.89,225,506,256,506s54.92-3.08,71.11-9.18c13.25-5,18-10.74,19.59-13.67l1.39-2.55v-2.93c.2-33.71,4.88-128.18,23.72-160,10.37-17.53,15.45-43,15.44-77.42,26.87-2.23,48.33-11.44,63.89-27.47,25.39-26.14,25-60.69,25-62.15Zm-341.51,0c-10.39-16.46-15.9-36-18.8-52.94a176.72,176.72,0,0,0,18.56,17.84,170.52,170.52,0,0,0,31.33,20.67c-7,3.68-15.17,8.61-21.7,14.43Zm25.45,151c-8.79-4.6-11.2-17.18-5.46-28.1s17.49-16,26.23-11.43,11.21,17.18,5.46,28.1S168.58,294.9,159.83,290.3Zm165.3,182.1c-2.83,1.69-8.85,4.46-20.42,6.75-6.1-9.09-19.63-21.27-48.21-21.41H256c-28.68.14-42.2,12.41-48.27,21.49-11.86-2.31-18-5.12-20.88-6.84-.09-4.68-.28-12.31-.7-21.83,16.7-14.65,46.73-50.22,47.86-117.69,1.48-93.62-60.66-107.65-37.58-143.23s48.35-27.9,59.85-27.9,36.84-7.68,59.87,27.9S277,239.25,278.46,332.88c1.1,66.82,30.56,102.37,47.35,117.25C325.42,459.86,325.22,467.64,325.13,472.4Zm27.55-182.1c-8.78,4.6-20.5-.52-26.23-11.43s-3.29-23.5,5.46-28.1,20.51.52,26.24,11.43S361.42,285.7,352.68,290.3Zm24.88-151h-9.32c-6.53-5.86-14.65-10.74-21.73-14.45a170.94,170.94,0,0,0,31.31-20.65A177.7,177.7,0,0,0,396.38,86.4c-2.93,16.9-8.44,36.48-18.84,52.94Z"/></svg>